<svg xmlns="http://www.w3.org/2000/svg" viewBox="0 0 256 256" role="img" aria-label="StockWay">
  <defs>
    <linearGradient id="tile" x1="48" y1="32" x2="208" y2="224" gradientUnits="userSpaceOnUse">
      <stop offset="0" stop-color="#38bdf8"/>
      <stop offset="0.48" stop-color="#2563eb"/>
      <stop offset="1" stop-color="#1d4ed8"/>
    </linearGradient>
    <filter id="shadow" x="-20%" y="-20%" width="140%" height="140%" color-interpolation-filters="sRGB">
      <feDropShadow dx="0" dy="12" stdDeviation="14" flood-color="#0f172a" flood-opacity="0.28"/>
    </filter>
  </defs>
  <rect x="20" y="20" width="216" height="216" rx="54" fill="url(#tile)" filter="url(#shadow)"/>
  <g fill="none" stroke="#fff" stroke-linecap="round">
    <g stroke-width="10">
      <path d="M80 66v32M80 154v36"/>
      <path d="M128 52v44M128 150v54"/>
      <path d="M176 82v28M176 166v32"/>
    </g>
    <g fill="#fff" stroke="none">
      <rect x="64" y="98" width="32" height="56" rx="7"/>
      <rect x="112" y="96" width="32" height="54" rx="7" opacity="0.94"/>
      <rect x="160" y="110" width="32" height="56" rx="7" opacity="0.88"/>
    </g>
  </g>
</svg>
<svg xmlns="http://www.w3.org/2000/svg" viewBox="0 0 64 64" width="512" height="512">
  <!-- StockWay brand mark: blue rounded tile + white candlesticks -->
  <rect x="4" y="4" width="56" height="56" rx="14" fill="#3b82f6"/>
  <g fill="none" stroke="#ffffff" stroke-width="2.5" stroke-linecap="round">
    <path d="M20 18v8M20 38v8"/>
    <rect x="16" y="26" width="8" height="12" rx="1.5" fill="#ffffff" stroke="none"/>
    <path d="M32 14v10M32 36v14"/>
    <rect x="28" y="24" width="8" height="12" rx="1.5" fill="#ffffff" stroke="none" opacity="0.92"/>
    <path d="M44 22v6M44 40v6"/>
    <rect x="40" y="28" width="8" height="12" rx="1.5" fill="#ffffff" stroke="none" opacity="0.85"/>
  </g>
</svg>
